<svg version="1.1" viewBox="0 0 100 100" xmlns="http://www.w3.org/2000/svg">
	<path d="m46.637 5.1915c-0.96569 0.29288-1.9588 0.90425-2.7127 1.6912-6.664 7.4797-22.363 28.121-30.159 33.091-7.8391 2.3775-15.887 8.9744-12.735 19.37 3.1527 10.396 13.567 11.393 21.349 9.033 1.8419-0.06241 4.0318 0.20392 6.3869 0.6062l7.9078 26.074 11.361-3.4456-5.9437-19.598c9.0936 2.5766 18.434 5.761 23.749 7.1266 1.064 0.2356 2.1725 0.20952 3.1951-0.1006 2.9539-0.89587 4.957-4.1086 3.9577-7.4034l-18.951-62.486c-0.99923-3.2947-4.4495-4.8536-7.4034-3.9577zm20.674 68.167c-2.5548-0.65186-6.055-1.7614-10.244-3.0963-1.0984-0.34921-2.2536-0.68119-3.426-1.07l-14.385-47.432c0.71938-0.90052 1.4164-1.6702 2.1358-2.5707 2.7588-3.3799 5.2629-6.3725 6.9685-8.3165zm1.0242-37.528 22.723-6.8914 1.7229 5.6806-22.723 6.8913zm3.4456 11.361 26.168 4.4699 1.7229 5.6806-26.168-4.4699zm12.385-40.975 1.7229 5.6806-19.276 18.252-1.7229-5.6806z" fill-rule="evenodd" stroke-width="5.936"/>
</svg>
