<svg viewBox="0 0 100 100" xmlns="http://www.w3.org/2000/svg">
    <path d="M90.108 7.143h-7.342v10.714c0 2-1.616 3.571-3.672 3.571H64.41c-2.056 0-3.67-1.571-3.67-3.571V7.143H38.71v10.714c0 2-1.615 3.571-3.671 3.571H20.355c-2.056 0-3.671-1.571-3.671-3.571V7.143H9.34C5.303 7.143 2 10.357 2 14.286v78.57c0 3.93 3.304 7.144 7.342 7.144h80.766c4.039 0 7.343-3.215 7.343-7.143V14.286c0-3.929-3.304-7.143-7.343-7.143zm0 85.714H9.342V28.57h80.766zM31.369 14.286h-7.342V0h7.342zm44.054 0h-7.342V0h7.342zm-36.712 28.57h-7.342v-7.142h7.342zm14.685 0h-7.342v-7.142h7.342zm14.685 0h-7.342v-7.142h7.342zm14.685 0h-7.342v-7.142h7.342zM24.027 57.144h-7.342V50h7.342zm14.685 0H31.37V50h7.342zm14.685 0h-7.342V50h7.342zm14.685 0H60.74V50h7.342zm14.685 0h-7.342V50h7.342zM24.028 71.429h-7.342v-7.143h7.342zm14.685 0h-7.342v-7.143h7.342zm14.685 0h-7.342v-7.143h7.342zm14.685 0h-7.342v-7.143h7.342zm14.685 0h-7.342v-7.143h7.342zM24.029 85.715h-7.342v-7.143h7.342zm14.685 0h-7.342v-7.143h7.342zm14.685 0h-7.342v-7.143h7.342zm14.685 0h-7.342v-7.143h7.342z" fill-rule="evenodd"/>
</svg>
