<svg viewBox="0 0 100 100" xmlns="http://www.w3.org/2000/svg">
    <path d="M49.013 99.74c-.26-.175-2.839-1.989-5.731-4.03a3002.396 3002.396 0 0 0-5.472-3.857c-.688-.47-4.593-3.214-5.002-3.515-.269-.198-1.082-.773-1.808-1.276a307.05 307.05 0 0 1-2.296-1.611 3365.52 3365.52 0 0 0-6.572-4.63l-5.595-3.935.01-6.613c.005-3.637.081-18.156.17-32.265l.162-25.65 2-.028c1.101-.014 2.038-.063 2.084-.108.045-.046.164-.693.263-1.44.184-1.38.515-2.839.882-3.897.112-.323.309-1.011.438-1.53.315-1.271 1.233-3.078 2.02-3.98.207-.237.375-.5.375-.587 0-.087-.143-.238-.317-.337-.302-.172-.308-.186-.127-.318.104-.075.254-.137.334-.137.16 0 2.622.971 4.459 1.76.645.276 1.876.78 2.736 1.12.86.34 2.003.826 2.54 1.079s1.44.654 2.004.891c2.09.879 13.448 6.443 14.871 7.285l.653.387 15.652.11c13.895.097 15.659.126 15.71.259.032.082-.048 14.59-.176 32.242-.21 28.64-.25 32.11-.386 32.263-.083.094-1.185.867-2.448 1.72-3.727 2.513-4.81 3.246-9.731 6.589a5636.572 5636.572 0 0 0-11.732 7.97c-7.814 5.319-9.03 6.14-9.286 6.276-.18.096-.282.065-.684-.206zm7.052-13.642c.475-.235 1.373-.769 1.995-1.185l1.132-.757 1.612-.056c1.544-.054 2.623-.199 4.935-.663 1.315-.264 1.751-.412 3.134-1.064.949-.448 1.298-.673 1.784-1.148.593-.58.603-.6.603-1.122 0-.507-.024-.557-.547-1.135-.3-.332-.751-.72-1.001-.86-.25-.142-.74-.424-1.09-.628-2.054-1.199-6.492-2.296-10.065-2.49-1.145-.061-1.24-.082-1.515-.33-1.108-.998-2.836-1.67-5.023-1.953-1.337-.173-1.212-.294-1.132 1.103.049.844.037 1.229-.038 1.275-.113.07-2.772.383-4.263.501-1.46.116-5.444.818-6.596 1.163a243.6 243.6 0 0 1-1.372.406l-.542.157-3.644-1.823c-2.83-1.415-3.675-1.798-3.777-1.713-.385.32-.655 2.287-.443 3.232.165.734.296 1.054.612 1.495.332.462.333.484.04 1.09-.362.751-.451 1.098-.513 1.996-.063.904.047 1.501.344 1.868l.18.224 3.459-1.485c1.901-.817 3.509-1.485 3.572-1.485.062 0 .326.092.586.204.71.306 3.073.929 4.234 1.116.565.091 1.334.23 1.71.308.377.078 1.47.273 2.432.432.96.159 2.038.354 2.394.432 1.374.304 3.638.636 4.336.636.778 0 1.721.143 1.86.282.048.048-.229.178-.631.297-1.76.521-3.599 1.472-3.599 1.86 0 .175.945.279 2.402.264l1.572-.016zm8.16-6.07c-.305-.305-.274-1.104.056-1.433.218-.22.311-.245.705-.201.585.066.9.401.9.96 0 .576-.328.87-.973.87-.363 0-.545-.052-.689-.196zm15.46-32.2c.092-12.468.157-24.715.146-27.214l-.02-4.544-10.684-.083c-5.875-.045-10.712-.053-10.748-.018-.09.09.277.352 1.252.895.457.254 2.128 1.323 3.713 2.375s2.906 1.924 2.935 1.938c.029.014.05-.39.049-.896-.003-.87.013-.944.294-1.344.163-.233.537-.57.83-.75.484-.294.587-.32 1.105-.277 1.283.108 2.018.99 2.018 2.42 0 .706-.022.786-.322 1.18-.374.492-1.14.855-1.811.86-.233.002-.409.043-.391.093.05.136 1.557 1.278 1.688 1.278.063 0 .507-.159.987-.352.975-.393 1.41-.408 2.063-.069.435.226.816.87.816 1.382 0 .19-.097.645-.216 1.014l-.216.67 2.317 2.318c1.274 1.275 2.317 2.377 2.317 2.448 0 .203-.884 1.188-1.065 1.188-.089 0-1.499-.99-3.134-2.2-1.634-1.211-2.996-2.188-3.027-2.172l-.397.208c-.264.138-1.164 1.314-3.957 5.172L62.61 38.34l-1.124.7c-.618.385-2.135 1.326-3.37 2.093-1.237.766-2.266 1.409-2.287 1.428-.064.057.179 3.292.388 5.169.29 2.613.287 2.59.42 2.59.117 0 .53-.254 2.774-1.705 2.09-1.352 2.33-1.499 2.932-1.802.337-.17.859-.467 1.16-.66.822-.525 5.065-2.698 5.868-3.005.563-.214.743-.335.903-.608.11-.186.322-.41.47-.496.149-.086.446-.425.66-.753.78-1.192 1.917-2.074 2.914-2.261.536-.1.47.083-.372 1.029-.403.453-.733.862-.733.909 0 .047.165.06.366.03 1.175-.174 1.457-.177 1.62-.013.2.198.2.233.021.661-.101.243-.22.357-.415.397-.15.03-.476.19-.725.356-.797.53-1.47.713-2.736.742-.922.022-1.262.073-1.808.271-.758.276-5.065 2.476-5.923 3.026a15.9 15.9 0 0 1-1.172.668c-.705.356-1.9 1.104-5.034 3.149l-.904.59v.452c0 .65.282 1.599.974 3.273.693 1.678.819 2.04.972 2.785.06.296.275 1.282.477 2.192l.367 1.655.671.275c.37.151.724.319.789.372.07.059.21.96.347 2.248.146 1.368.27 2.15.338 2.15.289 0 1.975-1.332 3.187-2.519.643-.63.998-.909 1.123-.885.1.02.337.255.525.523s.87 1.017 1.516 1.664c2.479 2.484 4.352 3.703 7.476 4.862 1.062.394 2.453.639 3.518.62l.733-.014zm-4.907-4c0-.216.134-.255.636-.186.444.061.453.068.23.192-.32.178-.866.174-.866-.006zm1.27-.208c0-.033.088-.172.196-.308.231-.295.252-.64.049-.809-.24-.2-.167-.31.093-.14.467.306.443.914-.046 1.167-.16.083-.292.124-.292.09zm-.388-1.504c-.079-.05-.12-.115-.09-.144.029-.03.137.011.241.09.206.155.08.2-.15.054zM24.208 70.062c1.37-.266 3.837-1.197 5.211-1.969 1.274-.714 2.546-1.726 4.033-3.208.839-.835 1.664-1.695 1.834-1.91l.31-.39.756.793c.907.953 2.971 2.768 3.784 3.328 1.378.949 3.492 2.085 4.348 2.336.295.086.659.22.809.298s.31.119.354.091c.045-.027-.176-1.336-.492-2.907-.315-1.571-.572-2.932-.572-3.025 0-.093.33-.441.733-.774.403-.334.732-.644.732-.69 0-.045-.707-.775-1.572-1.622-1.679-1.642-1.941-1.99-2.195-2.91-.375-1.36-.4-2.051-.14-3.748.06-.396.089-.773.063-.839-.025-.066-.39-.243-.812-.394-1.036-.371-2.62-1.238-3.427-1.875-1.429-1.129-2.897-3.163-3.603-4.992-1.221-3.161-1.669-5.561-1.572-8.429.085-2.548.482-4.506 1.574-7.769.696-2.08.904-3.176.74-3.904-.24-1.075-.656-1.556-1.661-1.923-.596-.217-.75-.23-2.488-.208-2.66.035-3.63-.17-5.556-1.168-1.296-.672-2.359-1.697-2.968-2.862-.349-.668-.798-2.067-1.097-3.42-.06-.275-.097-.295-.575-.323-.356-.02-.523.01-.55.098-.021.07-.117 12.303-.212 27.184-.172 26.748-.172 27.058.015 27.2.156.118.492.135 1.9.094.94-.027 1.974-.1 2.296-.163zm18.168-17.714l.204-.719.169-.596-.532-.723c-.73-.994-2.457-3.58-2.669-3.996-.095-.188-.54-.97-.989-1.736-2.19-3.74-3.076-6.17-3.092-8.476-.004-.67.04-.89.313-1.537.696-1.653 2.124-2.262 5.793-2.468 1.036-.058 4.04-.433 5.893-.735.645-.105 1.48-.238 1.856-.294 3.062-.46 2.406-.242 11.335-3.753.86-.338 2.894-1.133 4.52-1.767 1.771-.69 2.956-1.202 2.956-1.278 0-.273-4.377-3.445-6.352-4.603a54.374 54.374 0 0 1-1.808-1.125 73.298 73.298 0 0 0-3.713-2.246l-.782-.442-16.838-.126c-12.105-.09-16.868-.096-16.944-.02-.114.115-.091.224.433 2.072.63 2.219 1.74 3.478 3.936 4.469 1.718.774 2.512.915 4.984.88 1.637-.022 1.806-.007 2.438.21 1.537.531 2.17 1.713 1.9 3.556-.111.768-.291 1.393-.963 3.344-.41 1.191-1.039 3.712-1.194 4.788-.073.51-.125 1.743-.123 2.932.003 1.852.03 2.18.275 3.371.355 1.728.42 1.94 1.373 4.5.732 1.965 2.64 4.278 4.307 5.22.269.152.686.39.928.53.443.256 1.994.872 2.226.884a.167.167 0 0 0 .16-.116zm-1.018-21.117c-.642-.173-1.622-.805-2.325-1.499-1.368-1.35-1.928-3.728-1.307-5.553.276-.812 1.07-2.065 1.614-2.547 1.15-1.02 2.852-1.557 4.24-1.341.364.056 1.02.245 1.46.42l.8.316 1.106-.435c1.92-.756 2.741-.898 3.584-.618.648.215.834.428.696.797-.148.395-1.683 1.92-2.413 2.396-.674.44-.686.492-.346 1.433.12.328.138.64.089 1.45-.105 1.71-.64 2.89-1.78 3.932-.624.571-1.723 1.139-2.485 1.283-.697.132-2.39.113-2.933-.034zm16.124 4.87c2.858-1.17 2.695-1.07 3.749-2.29.841-.973 1.053-1.275.892-1.275-.028 0-1.611.84-3.518 1.867-3.457 1.86-3.468 1.868-3.468 2.182 0 .426.063.464.477.288.194-.083 1.035-.43 1.868-.771zm-8.617-23.7c-.047-.14-2.985-1.674-7.653-3.994-4.346-2.16-9.961-4.894-10.051-4.894-.032 0-1.344-.6-2.915-1.331L25.389.85l-.327.378c-.622.721-.786.97-1.38 2.095-.421.8-.666 1.414-.837 2.1-.132.535-.33 1.23-.439 1.545-.518 1.498-1.198 5.065-1.003 5.258.038.039 5.039.109 11.112.157 16.72.131 16.388.13 16.35.017z" fill="none"/>
</svg>
