<svg width="261.747" height="100mm" viewBox="0 0 69.254 100" xmlns="http://www.w3.org/2000/svg">
    <path d="M13.682 98.845c2.961-.62 5.73-1.134 6.152-1.145.424-.009 1.143-.172 1.6-.364.958-.399 1.643-.165 2.648.912.721.77 1.611.786 4.38.07 1.517-.39 2.342-.49 3.066-.364 1.65.286 3.462.366 3.977.176.28-.103.608-.557.776-1.073.16-.492.76-1.834 1.333-2.984 1.782-3.566 2.855-4.986 2.054-2.717-.195.552-.354 1.648-.352 2.437.001 2.057.453 2.671 2.603 3.519.95.375 2.341 1.096 3.094 1.604 1.6 1.078 1.741 1.073 4.601-.165 3.596-1.557 4.773-1.951 7.023-2.36 1.223-.222 2.408-.498 2.633-.616.592-.309.513-1.087-.41-4.044-.6-1.929-1.035-2.875-1.633-3.576-.782-.912-1.414-2.133-1.21-2.337.053-.053.203.2.333.56.13.36.881 1.393 1.67 2.294 1.37 1.563 2.309 3.206 3.327 5.83 1.084 2.79 1.432 3.294 2.322 3.37.801.066 4.692-1.137 5.315-1.645.425-.347.366-1.205-.283-4.076-.822-3.641-1.469-5.61-2.066-6.277-.72-.809-6.29-4.81-6.693-4.81-.351 0-1.926 1.19-3.336 2.518-1.016.957-1.343.698-.563-.449.647-.952 2.934-5.943 2.934-6.403 0-.336-2.826-2.806-3.671-3.21-.401-.19-.835-.112-2.003.355-1.464.585-1.52.59-2.825.226-.732-.204-1.332-.495-1.332-.648 0-.154.308-1.533.686-3.064a431.668 431.668 0 0 0 1.772-7.7c.598-2.704 1.455-6.338 1.907-8.077s1.29-4.991 1.863-7.23 1.091-4.15 1.151-4.249c.117-.189 1.988-6.417 2.442-8.126.157-.593.49-1.144.827-1.365.822-.538 1.144-1.757.967-3.661-.133-1.43-.059-1.908.638-4.118 1.401-4.442 1.477-4.869.969-5.431-.303-.333-.665-.464-1.155-.417-.786.077-.968.48-2.35 5.22-.86 2.058-.808 2.725-2.635 2.735-.48.055-.767.313-1.126 1.01-.641 1.244-1.397 1.354-2.306.336-.609-.685-.748-.733-1.862-.64-2.016.365-2.98 1.353-4.994-.594-.392-.289-1.23-.845-1.509-1.389-.277-.544-1.16-1.675-1.96-2.51-2.478-2.59-2.073-2.926.016-2.926 2.614-.266 2.01-1.327 2.387-2.563.147-.48 1.271-.452 1.21-.756-.12-1.634.212-2.642.98-3.178.439-1.286.037-1.59 1.108-1.942.974-.558-1.155-2.747-2.817-3.245-1.637-.492-1.878-1.299-1.878-1.424s-.266-.588-.59-1.028c-.324-.44.16-1.937.028-2.424-.13-.486-.47-1.033-.756-1.216-.647-.415-2.393-1.188-6.914-2.484l-3.484-1-1.666.4c-3.73.898-3.333.623-4.018 2.783-.678 2.142-1.03 5.87-.624 6.628.224.418.172.448-.64.37-.57-.054-1.218.087-1.828.398-.85.434-1.022.68-1.69 2.422-1.601 4.172-7.147 20.709-7.362 21.951-.116.669.023 1.122.754 2.458.838 1.53.989 1.675 2.247 2.178.742.298 1.862.602 2.49.676l1.14.135-.544.73c-.299.4-.793 1.466-1.1 2.367-.473 1.397-.56 2.125-.582 4.917 1.271 3.282.969 6.46.839 10.111l-.201 3.022c-.251 2.367-.813 4.105-2.184 7.934-.641 1.474-.874 2.42-1.092 4.447-.153 1.417-.456 3.458-.676 4.535-.24 1.474-.577 2.157-.999 2.568-.4.377-2.577 3.551-2.55 4.505.029 1.017.077.998 1.287 2.165.887.858 2.078 1.56 2.26 1.56s.593.397.91.884l.58.884-1.01.523c-.937.487-1.06.5-1.696.171-.5-.258-1.44-.355-3.474-.355-2.563 0-2.926-.056-4.491-.703-2.184-.9-2.642-.892-3.36.059C1.044 92.624.253 94.476.087 96.33c-.156 1.748-.144 1.81.397 2.04 1.511.638 5.667 1.652 6.679 1.628.624-.015 3.558-.534 6.52-1.153zm13.13-8.303c-.632-.192-1.447-.348-1.811-.348-.525 0-.727-.157-.98-.762-.435-1.04-.914-1.383-2.12-1.52l-1.03-.114-.402-1.67c-.222-.918-.49-1.835-.597-2.038-.313-.596 1.748-7.939 2.82-10.045.23-.453.85-1.972 1.38-3.378.53-1.409 1.325-3.022 1.772-3.596.888-1.138 1.07-1.618 1.648-4.334.653-2.013 1.616-3.764 2.323-5.777.826-2.66 2.278-3.26 2.516-3.25 3.714.25 5.918 1.056 6.805 1.394.292.15.56.299.597.33.038.03-.14.412-.396.846-.756 1.286-3.028 6.953-3.325 7.494l-.932 1.102-.905 1.111c-1.46 2.304-1.509 3.496-.198 4.917 1.073 1.164 1.974 1.725 2.81 1.748.346.01.964.488 1.737 1.347l1.197 1.33-.847 1.274c-.807 1.214-.937 1.303-2.719 1.873-1.03.33-2.004.683-2.166.787-.207.135-.292 1.022-.292 3.066v2.875l-1.424.43c-1.413.429-1.428.442-2.255 2.084-.662 1.315-1.858 3.19-2.026 3.176-.016-.002-.548-.16-1.18-.352zm19.02-18.063c-.124-.15-.63-.343-1.126-.426-1.15-.195-1.374-.476-2.45-3.088l-.886-2.15.59-1.01c.323-.556 1.01-1.747 1.523-2.648.513-.902 1.592-2.639 2.396-3.863 2.541-3.864 3.735-6.305 3.73-7.626-.005-1.278-.707-3.07-1.287-3.293-5.05-2.143-6.99-3.541-11.036-5.151-.88-.224-1.689-.48-1.798-.571-.108-.09.332-.94.979-1.89.792-1.16 1.086-2.308 1.561-3.259.491-.98.526-1.005 1.082-1.345.396-.242.79-.229 1.23-.374.628-.207 1.33-.07 2.507.209.825.193 2.118.355 2.87.357 1.181.003 1.5.105 2.3.737.875.694 1.01.727 2.377.6 1.996-.187 2.207-.302 2.84-1.554.418-.822.799-1.206 1.52-1.53 1.732-.782 1.732-.79-.705 8.304a720.5 720.5 0 0 0-1.368 5.268c-.529 2.059-1.17 4.272-1.427 4.916-.953 2.388-3.473 12.407-4.494 17.871-.297 1.592-.577 2.644-.62 2.342-.046-.303-.184-.674-.308-.826z" stroke-width="1.75"/>
</svg>
